<?xml version="1.0" encoding="UTF-8"?>
<svg width="1200pt" height="1200pt" version="1.1" viewBox="0 0 1200 1200" xmlns="http://www.w3.org/2000/svg" fill="#cdcdcf">
 <path d="m898.5 935.63c28.875 7.875 55.875 16.125 82.125 25.125-81.188 85.594-188.86 141.37-305.63 158.26 23.484-29.156 45.141-59.719 64.875-91.5 22.594-36.375 42.281-74.484 58.875-114 34.875 6 67.875 13.875 99.75 22.125zm-523.87-96.375c-21-66.469-32.953-135.47-35.625-205.13l-262.5-2.625c5.3906 93.562 35.812 183.98 88.125 261.74 24-8.625 49.5-16.5 75.75-24 44.156-12.562 88.969-22.594 134.26-30zm-35.625-280.5c3.2812-69.609 15.75-138.42 37.125-204.74-46.125-8.25-90-18-131.26-29.625-26.25-7.5-51.375-15.375-75.75-23.625-52.641 75.656-84.328 163.87-91.875 255.74l75 0.75zm63.75-276.37c16.547-37.922 35.719-74.625 57.375-109.88 19.734-31.781 41.391-62.344 64.875-91.5-116.3 16.781-223.6 72.281-304.5 157.5 26.25 8.25 54.375 16.125 83.25 23.625 31.875 7.875 64.5 14.625 99 20.25zm196.87 612.37c-40.594-0.14062-81.141 1.875-121.5 6 23.859 52.312 53.578 101.72 88.5 147.37 11.625 15.75 23.25 30 34.5 42.75 10.875-12.75 22.5-27 34.125-42.75 34.078-45.188 63.141-93.984 86.625-145.5-39.375-4.125-79.5-7.5-122.26-7.875zm0.75-594.74c41.25 0.375 80.625-1.875 119.25-5.25-23.578-50.578-52.5-98.484-86.25-142.87-11.625-15.75-23.25-30-34.5-42.75-10.875 12.75-22.5 27-34.125 42.75-33.188 43.781-61.5 91.078-84.375 141 38.625 3.75 78.375 6.75 120 7.125zm-150.37 528.37c49.922-5.8125 100.12-8.6719 150.37-8.625 50.062 0.65625 100.03 4.3125 149.63 10.875 20.766-62.297 32.906-127.18 36-192.74l-372-3.375c3.0938 65.953 15.188 131.21 36 193.87zm298.5-461.26c-45.984 4.9688-92.156 7.5938-138.37 7.875h-10.5c-49.547-0.60938-99-3.9844-148.13-10.125-21.516 62.812-34.125 128.29-37.5 194.63l372 3.375c-3.3281-66.656-15.938-132.56-37.5-195.74zm49.125-81.375c35.625-5.25 69.75-12.375 102.75-19.875 29.25-6.75 57-14.25 83.625-22.5-81.984-88.359-191.9-145.82-311.26-162.74 23.719 28.922 45.516 59.344 65.25 91.125 22.734 36.422 42.656 74.531 59.625 114zm63.375 352.87c-3 69.141-15.094 137.63-36 203.63 44.297 8.1094 88.078 18.656 131.26 31.5 26.25 7.875 51 16.125 75 24.75 53.016-76.172 84.75-165.1 91.875-257.63l-75-0.75zm-36.75-281.26c21.422 66.797 33.797 136.18 36.75 206.26l187.13 1.5 75 0.75c-5.7188-92.812-36.141-182.39-88.125-259.5-24.375 7.875-49.875 15.75-76.5 22.875-42 10.875-87 20.25-134.26 28.125zm-423.37 552.74c-36.375 6-70.875 13.125-103.88 21.75-28.5 7.125-55.875 15-82.125 23.625 82.031 89.109 192.42 147.05 312.37 163.87-23.719-28.922-45.516-59.344-65.25-91.125-23.531-37.688-43.969-77.156-61.125-118.12z"/>
</svg>
